<svg width="40" height="40" viewBox="0 0 40 40" fill="none" xmlns="http://www.w3.org/2000/svg">
<circle cx="20" cy="20" r="20" fill="url(#paint0_linear_719_3405)"/>
<path d="M22.1667 13.5H13.5C12.4905 13.5 11.9854 13.5 11.5872 13.6649C11.0563 13.8848 10.6348 14.3069 10.4149 14.8378C10.25 15.2359 10.25 15.7407 10.25 16.7502C12.0449 16.7502 13.5 18.2048 13.5 19.9998C13.5 21.7947 12.0449 23.25 10.25 23.25C10.25 24.2595 10.25 24.7643 10.4149 25.1625C10.6348 25.6934 11.0563 26.1151 11.5872 26.335C11.9854 26.4999 12.4905 26.5 13.5 26.5H22.1667M22.1667 13.5H26.5C27.5095 13.5 28.0143 13.5 28.4125 13.6649C28.9434 13.8848 29.3651 14.3069 29.585 14.8378C29.7499 15.2359 29.7499 15.7407 29.7499 16.7502C27.955 16.7502 26.5 18.2051 26.5 20C26.5 21.7949 27.955 23.25 29.7499 23.25C29.7499 24.2595 29.7499 24.7643 29.585 25.1625C29.3651 25.6934 28.9434 26.1151 28.4125 26.335C28.0143 26.4999 27.5095 26.5 26.5 26.5H22.1667M22.1667 13.5V26.5" stroke="white" stroke-width="2" stroke-linecap="round" stroke-linejoin="round"/>
<defs>
<linearGradient id="paint0_linear_719_3405" x1="3.5" y1="-3" x2="40" y2="40" gradientUnits="userSpaceOnUse">
<stop stop-color="#2546FF"/>
<stop offset="1" stop-color="#23ACDE"/>
</linearGradient>
</defs>
</svg>
