<svg width="40" height="40" viewBox="0 0 40 40" fill="none" xmlns="http://www.w3.org/2000/svg">
<g clip-path="url(#clip0_719_3513)">
<path fill-rule="evenodd" clip-rule="evenodd" d="M20 40C31.0456 40 40 31.0456 40 20C40 8.9544 31.0456 0 20 0C8.9544 0 0 8.9544 0 20C0 31.0456 8.9544 40 20 40ZM28.7908 12.7776C28.9452 11.0256 27.0948 11.7472 27.0948 11.7472C25.7598 12.3 24.3838 12.8612 22.9928 13.4285C22.9605 13.4417 22.9283 13.4548 22.896 13.468C18.48 15.2692 13.9184 17.13 10.0324 18.9616C7.9252 19.7344 9.1588 20.5072 9.1588 20.5072L12.4992 21.538C14.0412 22.002 14.8632 21.4864 14.8632 21.4864L22.0584 16.5912C24.628 14.8392 24.0112 16.282 23.3944 16.9004L17.9984 22.0532C17.176 22.7748 17.5872 23.3932 17.9468 23.7024C18.9668 24.602 21.4748 26.248 22.5696 26.9664C22.8544 27.1532 23.0436 27.2776 23.0864 27.3096C23.3432 27.5156 24.7308 28.4432 25.656 28.2372C26.5812 28.0308 26.684 26.8456 26.684 26.8456L27.9172 18.7552C28.1016 17.3542 28.3134 16.0072 28.4828 14.9301C28.4832 14.9275 28.4836 14.925 28.484 14.9224C28.4848 14.9175 28.4855 14.9127 28.4863 14.9078C28.6452 13.8966 28.7661 13.1267 28.7908 12.7776Z" fill="#23ACDE"/>
<path d="M28.7908 12.7776C28.9452 11.0256 27.0948 11.7472 27.0948 11.7472C25.7598 12.3 24.3838 12.8612 22.9928 13.4285L22.896 13.468C18.48 15.2692 13.9184 17.13 10.0324 18.9616C7.9252 19.7344 9.1588 20.5072 9.1588 20.5072L12.4992 21.538C14.0412 22.002 14.8632 21.4864 14.8632 21.4864L22.0584 16.5912C24.628 14.8392 24.0112 16.282 23.3944 16.9004L17.9984 22.0532C17.176 22.7748 17.5872 23.3932 17.9468 23.7024C18.9668 24.602 21.4748 26.248 22.5696 26.9664C22.8544 27.1532 23.0436 27.2776 23.0864 27.3096C23.3432 27.5156 24.7308 28.4432 25.656 28.2372C26.5812 28.0308 26.684 26.8456 26.684 26.8456L27.9172 18.7552C28.1016 17.3542 28.3134 16.0072 28.4828 14.9301L28.484 14.9224L28.4863 14.9078C28.6452 13.8966 28.7661 13.1267 28.7908 12.7776Z" fill="white"/>
</g>
<defs>
<clipPath id="clip0_719_3513">
<rect width="40" height="40" fill="white"/>
</clipPath>
</defs>
</svg>
