<svg width="40" height="40" viewBox="0 0 40 40" fill="none" xmlns="http://www.w3.org/2000/svg">
<circle cx="20" cy="20" r="20" fill="#23ACDE"/>
<path fill-rule="evenodd" clip-rule="evenodd" d="M12.5 19.3332V22.4998V24.8332C12.5 25.7666 12.5 26.2333 12.6817 26.5898C12.8414 26.9034 13.0964 27.1584 13.41 27.3182C13.7665 27.4998 14.2332 27.4998 15.1667 27.4998H24.8333C25.7667 27.4998 26.2335 27.4998 26.59 27.3182C26.9036 27.1584 27.1586 26.9034 27.3183 26.5898C27.5 26.2333 27.5 25.7666 27.5 24.8332V19.3332C27.5 18.3997 27.5 17.9331 27.3183 17.5765C27.1586 17.2629 26.9036 17.008 26.59 16.8482C26.2335 16.6665 25.7667 16.6665 24.8333 16.6665H23.3333H15.1667C14.2332 16.6665 13.7665 16.6665 13.41 16.8482C13.0964 17.008 12.8414 17.2629 12.6817 17.5765C12.5 17.9331 12.5 18.3997 12.5 19.3332ZM23.75 22.4998C23.9801 22.4998 24.1667 22.3133 24.1667 22.0832C24.1667 21.8531 23.9801 21.6665 23.75 21.6665C23.5199 21.6665 23.3333 21.8531 23.3333 22.0832C23.3333 22.3133 23.5199 22.4998 23.75 22.4998Z" fill="white"/>
<path d="M23.3333 16.6665V13.7504C23.3333 13.0573 23.3333 12.7107 23.1873 12.4977C23.0597 12.3117 22.8622 12.1853 22.6398 12.1474C22.3852 12.1041 22.0706 12.2493 21.4412 12.5398L14.0492 15.9515C13.4879 16.2106 13.2073 16.3401 13.0018 16.541C12.82 16.7185 12.6813 16.9353 12.5962 17.1747C12.5 17.4455 12.5 17.7546 12.5 18.3727V22.4998M23.3333 16.6665H24.8333M23.3333 16.6665H15.1667M12.5 22.4998V19.3332M12.5 22.4998V24.8332M23.75 22.0832H23.7583M12.5 19.3332V24.8332M12.5 19.3332C12.5 18.3997 12.5 17.9331 12.6817 17.5765C12.8414 17.2629 13.0964 17.008 13.41 16.8482C13.7665 16.6665 14.2332 16.6665 15.1667 16.6665M12.5 24.8332C12.5 25.7666 12.5 26.2333 12.6817 26.5898C12.8414 26.9034 13.0964 27.1584 13.41 27.3182C13.7665 27.4998 14.2332 27.4998 15.1667 27.4998H24.8333C25.7667 27.4998 26.2335 27.4998 26.59 27.3182C26.9036 27.1584 27.1586 26.9034 27.3183 26.5898C27.5 26.2333 27.5 25.7666 27.5 24.8332V19.3332C27.5 18.3997 27.5 17.9331 27.3183 17.5765C27.1586 17.2629 26.9036 17.008 26.59 16.8482C26.2335 16.6665 25.7667 16.6665 24.8333 16.6665M24.8333 16.6665H15.1667M24.1667 22.0832C24.1667 22.3133 23.9801 22.4998 23.75 22.4998C23.5199 22.4998 23.3333 22.3133 23.3333 22.0832C23.3333 21.8531 23.5199 21.6665 23.75 21.6665C23.9801 21.6665 24.1667 21.8531 24.1667 22.0832Z" stroke="white" stroke-width="1.75" stroke-linecap="round" stroke-linejoin="round"/>
</svg>
