<svg width="39" height="39" viewBox="0 0 39 39" fill="none" xmlns="http://www.w3.org/2000/svg">
<g clip-path="url(#clip0_1001_3612)">
<path fill-rule="evenodd" clip-rule="evenodd" d="M19.5 39C30.2696 39 39 30.2696 39 19.5C39 8.73045 30.2696 0 19.5 0C8.73045 0 0 8.73045 0 19.5C0 30.2696 8.73045 39 19.5 39ZM17.4712 20.4384L10.4444 10.4H15.8601L20.4668 16.981L26.1682 10.4H27.7596L21.1778 17.997L28.6 28.6H23.1843L18.1823 21.4544L11.9914 28.6H10.4L17.4712 20.4384ZM15.2727 11.6525H12.7847L23.7713 27.3473H26.2593L15.2727 11.6525Z" fill="#23ACDE"/>
</g>
<defs>
<clipPath id="clip0_1001_3612">
<rect width="39" height="39" rx="19.5" fill="white"/>
</clipPath>
</defs>
</svg>
